<?xml version="1.0" encoding="utf-8"?>
<!-- Generator: Adobe Illustrator 22.0.0, SVG Export Plug-In . SVG Version: 6.00 Build 0)  -->
<svg version="1.1" id="Layer_1" xmlns="http://www.w3.org/2000/svg" xmlns:xlink="http://www.w3.org/1999/xlink" x="0px" y="0px"
	 viewBox="0 0 100 100" style="enable-background:new 0 0 100 100;" xml:space="preserve">
<style type="text/css">
	.st0{fill:#FFFFFF;}
</style>
<path class="st0" d="M94.9,82.5L72.4,60c3.4-5.6,5.3-12.1,5.3-19.1C77.7,20.6,60.1,3,39.8,3C19.5,3,3,19.5,3,39.8
	c0,20.3,17.6,37.9,37.9,37.9c6.8,0,13.1-1.8,18.5-5l22.6,22.6c2.2,2.2,5.8,2.2,8,0l5.6-5.6C97.9,87.5,97.1,84.7,94.9,82.5L94.9,82.5
	z M14.3,39.8c0-14.1,11.4-25.5,25.5-25.5c14.1,0,26.6,12.5,26.6,26.6C66.4,55,55,66.4,40.9,66.4C26.9,66.4,14.3,53.9,14.3,39.8z"/>
</svg>
