<?xml version="1.0" encoding="utf-8"?>
<!-- Generator: Adobe Illustrator 22.0.0, SVG Export Plug-In . SVG Version: 6.00 Build 0)  -->
<svg version="1.1" id="Layer_1" xmlns="http://www.w3.org/2000/svg" xmlns:xlink="http://www.w3.org/1999/xlink" x="0px" y="0px"
	 viewBox="0 0 100 100" style="enable-background:new 0 0 100 100;" xml:space="preserve">
<style type="text/css">
	.st0{fill:#FFFFFF;}
</style>
<g>
	<path id="Download" class="st0" d="M92,98H8c-3.3,0-6-2.7-6-6V68c0-3.3,2.7-6,6-6s6,2.7,6,6v18h72V68c0-3.3,2.7-6,6-6s6,2.7,6,6v24
		C98,95.3,95.3,98,92,98z M78.2,48.2l-24,24l0,0c-2.3,2.3-6.1,2.3-8.5,0c0,0,0,0,0,0l0,0l-24-24l0,0c-2.3-2.3-2.3-6.1,0-8.5
		c2.3-2.3,6.1-2.3,8.5,0l0,0l0,0L44,53.5V8c0-3.3,2.7-6,6-6s6,2.7,6,6v45.5l13.8-13.8l0,0c2.3-2.3,6.1-2.3,8.5,0
		C80.6,42.1,80.6,45.9,78.2,48.2L78.2,48.2L78.2,48.2z"/>
</g>
</svg>
